<svg xmlns="http://www.w3.org/2000/svg" xmlns:xlink="http://www.w3.org/1999/xlink" contentStyleType="text/css" height="833px" preserveAspectRatio="none" style="width:2683px;height:833px;background:#FFFFFF;" version="1.1" viewBox="0 0 2683 833" width="2683px" zoomAndPan="magnify"><defs/><g><!--class Paciente--><g id="elem_Paciente"><rect codeLine="3" fill="#F1F1F1" height="96.8906" id="Paciente" rx="2.5" ry="2.5" style="stroke:#181818;stroke-width:0.5;" width="183.2744" x="1771.5" y="549.5"/><ellipse cx="1828.7886" cy="565.5" fill="#ADD1B2" rx="11" ry="11" style="stroke:#181818;stroke-width:1.0;"/><path d="M1831.7573,571.1406 Q1831.1792,571.4375 1830.5386,571.5781 Q1829.8979,571.7344 1829.1948,571.7344 Q1826.6948,571.7344 1825.3667,570.0938 Q1824.0542,568.4375 1824.0542,565.3125 Q1824.0542,562.1875 1825.3667,560.5313 Q1826.6948,558.875 1829.1948,558.875 Q1829.8979,558.875 1830.5386,559.0313 Q1831.1948,559.1875 1831.7573,559.4844 L1831.7573,562.2031 Q1831.1323,561.625 1830.5386,561.3594 Q1829.9448,561.0781 1829.3198,561.0781 Q1827.9761,561.0781 1827.2886,562.1563 Q1826.6011,563.2188 1826.6011,565.3125 Q1826.6011,567.4063 1827.2886,568.4844 Q1827.9761,569.5469 1829.3198,569.5469 Q1829.9448,569.5469 1830.5386,569.2813 Q1831.1323,569 1831.7573,568.4219 L1831.7573,571.1406 Z " fill="#000000"/><text fill="#000000" font-family="sans-serif" font-size="14" lengthAdjust="spacing" textLength="60.1973" x="1849.2886" y="570.3467">Paciente</text><line style="stroke:#181818;stroke-width:0.5;" x1="1772.5" x2="1953.7744" y1="581.5" y2="581.5"/><rect fill="none" height="6" style="stroke:#C82930;stroke-width:1.0;" width="6" x="1779.5" y="592.1484"/><text fill="#000000" font-family="sans-serif" font-size="14" lengthAdjust="spacing" textLength="70.8682" x="1791.5" y="598.4951">cpf: string</text><rect fill="none" height="6" style="stroke:#C82930;stroke-width:1.0;" width="6" x="1779.5" y="608.4453"/><text fill="#000000" font-family="sans-serif" font-size="14" lengthAdjust="spacing" textLength="89.0449" x="1791.5" y="614.792">nome: string</text><rect fill="none" height="6" style="stroke:#C82930;stroke-width:1.0;" width="6" x="1779.5" y="624.7422"/><text fill="#000000" font-family="sans-serif" font-size="14" lengthAdjust="spacing" textLength="157.2744" x="1791.5" y="631.0889">dataNascimento: Date</text><line style="stroke:#181818;stroke-width:0.5;" x1="1772.5" x2="1953.7744" y1="638.3906" y2="638.3906"/></g><!--class Consulta--><g id="elem_Consulta"><rect codeLine="9" fill="#F1F1F1" height="113.1875" id="Consulta" rx="2.5" ry="2.5" style="stroke:#181818;stroke-width:0.5;" width="161.502" x="2515" y="220.5"/><ellipse cx="2560.8315" cy="236.5" fill="#ADD1B2" rx="11" ry="11" style="stroke:#181818;stroke-width:1.0;"/><path d="M2563.8003,242.1406 Q2563.2222,242.4375 2562.5815,242.5781 Q2561.9409,242.7344 2561.2378,242.7344 Q2558.7378,242.7344 2557.4097,241.0938 Q2556.0972,239.4375 2556.0972,236.3125 Q2556.0972,233.1875 2557.4097,231.5313 Q2558.7378,229.875 2561.2378,229.875 Q2561.9409,229.875 2562.5815,230.0313 Q2563.2378,230.1875 2563.8003,230.4844 L2563.8003,233.2031 Q2563.1753,232.625 2562.5815,232.3594 Q2561.9878,232.0781 2561.3628,232.0781 Q2560.019,232.0781 2559.3315,233.1563 Q2558.644,234.2188 2558.644,236.3125 Q2558.644,238.4063 2559.3315,239.4844 Q2560.019,240.5469 2561.3628,240.5469 Q2561.9878,240.5469 2562.5815,240.2813 Q2563.1753,240 2563.8003,239.4219 L2563.8003,242.1406 Z " fill="#000000"/><text fill="#000000" font-family="sans-serif" font-size="14" lengthAdjust="spacing" textLength="61.3389" x="2581.3315" y="241.3467">Consulta</text><line style="stroke:#181818;stroke-width:0.5;" x1="2516" x2="2675.502" y1="252.5" y2="252.5"/><rect fill="none" height="6" style="stroke:#C82930;stroke-width:1.0;" width="6" x="2523" y="263.1484"/><text fill="#000000" font-family="sans-serif" font-size="14" lengthAdjust="spacing" textLength="130.0059" x="2535" y="269.4951">paciente: Paciente</text><rect fill="none" height="6" style="stroke:#C82930;stroke-width:1.0;" width="6" x="2523" y="279.4453"/><text fill="#000000" font-family="sans-serif" font-size="14" lengthAdjust="spacing" textLength="135.502" x="2535" y="285.792">dataConsulta: Date</text><rect fill="none" height="6" style="stroke:#C82930;stroke-width:1.0;" width="6" x="2523" y="295.7422"/><text fill="#000000" font-family="sans-serif" font-size="14" lengthAdjust="spacing" textLength="118.1729" x="2535" y="302.0889">horaInicio: string</text><rect fill="none" height="6" style="stroke:#C82930;stroke-width:1.0;" width="6" x="2523" y="312.0391"/><text fill="#000000" font-family="sans-serif" font-size="14" lengthAdjust="spacing" textLength="106.709" x="2535" y="318.3857">horaFim: string</text><line style="stroke:#181818;stroke-width:0.5;" x1="2516" x2="2675.502" y1="325.6875" y2="325.6875"/></g><!--class Agenda--><g id="elem_Agenda"><rect codeLine="16" fill="#F1F1F1" height="162.0781" id="Agenda" rx="2.5" ry="2.5" style="stroke:#181818;stroke-width:0.5;" width="539.085" x="1593.5" y="7"/><ellipse cx="1832.0845" cy="23" fill="#ADD1B2" rx="11" ry="11" style="stroke:#181818;stroke-width:1.0;"/><path d="M1835.0532,28.6406 Q1834.4751,28.9375 1833.8345,29.0781 Q1833.1938,29.2344 1832.4907,29.2344 Q1829.9907,29.2344 1828.6626,27.5938 Q1827.3501,25.9375 1827.3501,22.8125 Q1827.3501,19.6875 1828.6626,18.0313 Q1829.9907,16.375 1832.4907,16.375 Q1833.1938,16.375 1833.8345,16.5313 Q1834.4907,16.6875 1835.0532,16.9844 L1835.0532,19.7031 Q1834.4282,19.125 1833.8345,18.8594 Q1833.2407,18.5781 1832.6157,18.5781 Q1831.272,18.5781 1830.5845,19.6563 Q1829.897,20.7188 1829.897,22.8125 Q1829.897,24.9063 1830.5845,25.9844 Q1831.272,27.0469 1832.6157,27.0469 Q1833.2407,27.0469 1833.8345,26.7813 Q1834.4282,26.5 1835.0532,25.9219 L1835.0532,28.6406 Z " fill="#000000"/><text fill="#000000" font-family="sans-serif" font-size="14" lengthAdjust="spacing" textLength="53.416" x="1852.5845" y="27.8467">Agenda</text><line style="stroke:#181818;stroke-width:0.5;" x1="1594.5" x2="2131.585" y1="39" y2="39"/><rect fill="none" height="6" style="stroke:#C82930;stroke-width:1.0;" width="6" x="1601.5" y="49.6484"/><text fill="#000000" font-family="sans-serif" font-size="14" lengthAdjust="spacing" textLength="147.9844" x="1613.5" y="55.9951">consultas: Consulta[]</text><line style="stroke:#181818;stroke-width:0.5;" x1="1594.5" x2="2131.585" y1="63.2969" y2="63.2969"/><ellipse cx="1604.5" cy="76.9453" fill="#84BE84" rx="3" ry="3" style="stroke:#038048;stroke-width:1.0;"/><text fill="#000000" font-family="sans-serif" font-size="14" lengthAdjust="spacing" textLength="305.5391" x="1613.5" y="80.292">adicionarConsulta(consulta: Consulta): void</text><ellipse cx="1604.5" cy="93.2422" fill="#84BE84" rx="3" ry="3" style="stroke:#038048;stroke-width:1.0;"/><text fill="#000000" font-family="sans-serif" font-size="14" lengthAdjust="spacing" textLength="513.085" x="1613.5" y="96.5889">cancelarConsulta(cpf: string, dataConsulta: Date, horaInicio: string): void</text><ellipse cx="1604.5" cy="109.5391" fill="#84BE84" rx="3" ry="3" style="stroke:#038048;stroke-width:1.0;"/><text fill="#000000" font-family="sans-serif" font-size="14" lengthAdjust="spacing" textLength="466.4229" x="1613.5" y="112.8857">listarConsultas(periodoInicio: Date, periodoFim?: Date): Consulta[]</text><ellipse cx="1604.5" cy="125.8359" fill="#84BE84" rx="3" ry="3" style="stroke:#038048;stroke-width:1.0;"/><text fill="#000000" font-family="sans-serif" font-size="14" lengthAdjust="spacing" textLength="304.6367" x="1613.5" y="129.1826">adicionarPaciente(paciente: Paciente): void</text><ellipse cx="1604.5" cy="142.1328" fill="#84BE84" rx="3" ry="3" style="stroke:#038048;stroke-width:1.0;"/><text fill="#000000" font-family="sans-serif" font-size="14" lengthAdjust="spacing" textLength="240.0098" x="1613.5" y="145.4795">removerPaciente(cpf: string): void</text><ellipse cx="1604.5" cy="158.4297" fill="#84BE84" rx="3" ry="3" style="stroke:#038048;stroke-width:1.0;"/><text fill="#000000" font-family="sans-serif" font-size="14" lengthAdjust="spacing" textLength="181.6924" x="1613.5" y="161.7764">getPacientes(): Paciente[]</text></g><!--class PacienteFactory--><g id="elem_PacienteFactory"><rect codeLine="26" fill="#F1F1F1" height="129.4844" id="PacienteFactory" rx="2.5" ry="2.5" style="stroke:#181818;stroke-width:0.5;" width="838.7178" x="399" y="533.5"/><ellipse cx="757.7979" cy="549.5" fill="#ADD1B2" rx="11" ry="11" style="stroke:#181818;stroke-width:1.0;"/><path d="M760.7666,555.1406 Q760.1885,555.4375 759.5479,555.5781 Q758.9072,555.7344 758.2041,555.7344 Q755.7041,555.7344 754.376,554.0938 Q753.0635,552.4375 753.0635,549.3125 Q753.0635,546.1875 754.376,544.5313 Q755.7041,542.875 758.2041,542.875 Q758.9072,542.875 759.5479,543.0313 Q760.2041,543.1875 760.7666,543.4844 L760.7666,546.2031 Q760.1416,545.625 759.5479,545.3594 Q758.9541,545.0781 758.3291,545.0781 Q756.9854,545.0781 756.2979,546.1563 Q755.6104,547.2188 755.6104,549.3125 Q755.6104,551.4063 756.2979,552.4844 Q756.9854,553.5469 758.3291,553.5469 Q758.9541,553.5469 759.5479,553.2813 Q760.1416,553 760.7666,552.4219 L760.7666,555.1406 Z " fill="#000000"/><text fill="#000000" font-family="sans-serif" font-size="14" lengthAdjust="spacing" textLength="112.6221" x="778.2979" y="554.3467">PacienteFactory</text><line style="stroke:#181818;stroke-width:0.5;" x1="400" x2="1236.7178" y1="565.5" y2="565.5"/><line style="stroke:#181818;stroke-width:0.5;" x1="400" x2="1236.7178" y1="573.5" y2="573.5"/><ellipse cx="410" cy="587.1484" fill="#84BE84" rx="3" ry="3" style="stroke:#038048;stroke-width:1.0;"/><text fill="#000000" font-family="sans-serif" font-size="14" lengthAdjust="spacing" textLength="812.7178" x="419" y="590.4951">criarPaciente(cpf: string, nome: string, dataNascimento: Date): {valido: boolean, erro?: string, paciente?: Paciente}</text><ellipse cx="410" cy="603.4453" fill="#84BE84" rx="3" ry="3" style="stroke:#038048;stroke-width:1.0;"/><text fill="#000000" font-family="sans-serif" font-size="14" lengthAdjust="spacing" textLength="221.0674" x="419" y="606.792">validarCPF(cpf: string): boolean</text><ellipse cx="410" cy="619.7422" fill="#84BE84" rx="3" ry="3" style="stroke:#038048;stroke-width:1.0;"/><text fill="#000000" font-family="sans-serif" font-size="14" lengthAdjust="spacing" textLength="371.2461" x="419" y="623.0889">validarIdadeMinima(dataNascimento: Date): boolean</text><ellipse cx="410" cy="636.0391" fill="#84BE84" rx="3" ry="3" style="stroke:#038048;stroke-width:1.0;"/><text fill="#000000" font-family="sans-serif" font-size="14" lengthAdjust="spacing" textLength="254.2627" x="419" y="639.3857">validarNome(nome: string): boolean</text><ellipse cx="410" cy="652.3359" fill="#84BE84" rx="3" ry="3" style="stroke:#038048;stroke-width:1.0;"/><text fill="#000000" font-family="sans-serif" font-size="14" lengthAdjust="spacing" textLength="275.7822" x="419" y="655.6826">verificarExistencia(cpf: string): boolean</text></g><!--class ConsultaFactory--><g id="elem_ConsultaFactory"><rect codeLine="34" fill="#F1F1F1" height="145.7813" id="ConsultaFactory" rx="2.5" ry="2.5" style="stroke:#181818;stroke-width:0.5;" width="1021.7227" x="1352" y="204"/><ellipse cx="1801.7295" cy="220" fill="#ADD1B2" rx="11" ry="11" style="stroke:#181818;stroke-width:1.0;"/><path d="M1804.6982,225.6406 Q1804.1201,225.9375 1803.4795,226.0781 Q1802.8389,226.2344 1802.1357,226.2344 Q1799.6357,226.2344 1798.3076,224.5938 Q1796.9951,222.9375 1796.9951,219.8125 Q1796.9951,216.6875 1798.3076,215.0313 Q1799.6357,213.375 1802.1357,213.375 Q1802.8389,213.375 1803.4795,213.5313 Q1804.1357,213.6875 1804.6982,213.9844 L1804.6982,216.7031 Q1804.0732,216.125 1803.4795,215.8594 Q1802.8857,215.5781 1802.2607,215.5781 Q1800.917,215.5781 1800.2295,216.6563 Q1799.542,217.7188 1799.542,219.8125 Q1799.542,221.9063 1800.2295,222.9844 Q1800.917,224.0469 1802.2607,224.0469 Q1802.8857,224.0469 1803.4795,223.7813 Q1804.0732,223.5 1804.6982,222.9219 L1804.6982,225.6406 Z " fill="#000000"/><text fill="#000000" font-family="sans-serif" font-size="14" lengthAdjust="spacing" textLength="113.7637" x="1822.2295" y="224.8467">ConsultaFactory</text><line style="stroke:#181818;stroke-width:0.5;" x1="1353" x2="2372.7227" y1="236" y2="236"/><line style="stroke:#181818;stroke-width:0.5;" x1="1353" x2="2372.7227" y1="244" y2="244"/><ellipse cx="1363" cy="257.6484" fill="#84BE84" rx="3" ry="3" style="stroke:#038048;stroke-width:1.0;"/><text fill="#000000" font-family="sans-serif" font-size="14" lengthAdjust="spacing" textLength="995.7227" x="1372" y="260.9951">criarConsulta(paciente: Paciente, dataConsulta: Date, horaInicio: string, horaFim: string): {valido: boolean, erro?: string, consulta?: Consulta}</text><ellipse cx="1363" cy="273.9453" fill="#84BE84" rx="3" ry="3" style="stroke:#038048;stroke-width:1.0;"/><text fill="#000000" font-family="sans-serif" font-size="14" lengthAdjust="spacing" textLength="572.8037" x="1372" y="277.292">validarHorario(horaInicio: string, horaFim: string): {valido: boolean, erro?: string}</text><ellipse cx="1363" cy="290.2422" fill="#84BE84" rx="3" ry="3" style="stroke:#038048;stroke-width:1.0;"/><text fill="#000000" font-family="sans-serif" font-size="14" lengthAdjust="spacing" textLength="274.6611" x="1372" y="293.5889">ehFuturo(dataConsulta: Date): boolean</text><ellipse cx="1363" cy="306.5391" fill="#84BE84" rx="3" ry="3" style="stroke:#038048;stroke-width:1.0;"/><text fill="#000000" font-family="sans-serif" font-size="14" lengthAdjust="spacing" textLength="605.8281" x="1372" y="309.8857">verificarSobreposicao(dataConsulta: Date, horaInicio: string, horaFim: string): boolean</text><ellipse cx="1363" cy="322.8359" fill="#84BE84" rx="3" ry="3" style="stroke:#038048;stroke-width:1.0;"/><text fill="#000000" font-family="sans-serif" font-size="14" lengthAdjust="spacing" textLength="328.1387" x="1372" y="326.1826">converterParaMinutos(horario: string): number</text><ellipse cx="1363" cy="339.1328" fill="#84BE84" rx="3" ry="3" style="stroke:#038048;stroke-width:1.0;"/><text fill="#000000" font-family="sans-serif" font-size="14" lengthAdjust="spacing" textLength="368.4297" x="1372" y="342.4795">ehIntervaloDe15Minutos(minutos: number): boolean</text></g><!--class PacienteController--><g id="elem_PacienteController"><rect codeLine="43" fill="#F1F1F1" height="96.8906" id="PacienteController" rx="2.5" ry="2.5" style="stroke:#181818;stroke-width:0.5;" width="278.1572" x="7" y="685.5"/><ellipse cx="77.1436" cy="701.5" fill="#ADD1B2" rx="11" ry="11" style="stroke:#181818;stroke-width:1.0;"/><path d="M80.1123,707.1406 Q79.5342,707.4375 78.8936,707.5781 Q78.2529,707.7344 77.5498,707.7344 Q75.0498,707.7344 73.7217,706.0938 Q72.4092,704.4375 72.4092,701.3125 Q72.4092,698.1875 73.7217,696.5313 Q75.0498,694.875 77.5498,694.875 Q78.2529,694.875 78.8936,695.0313 Q79.5498,695.1875 80.1123,695.4844 L80.1123,698.2031 Q79.4873,697.625 78.8936,697.3594 Q78.2998,697.0781 77.6748,697.0781 Q76.3311,697.0781 75.6436,698.1563 Q74.9561,699.2188 74.9561,701.3125 Q74.9561,703.4063 75.6436,704.4844 Q76.3311,705.5469 77.6748,705.5469 Q78.2998,705.5469 78.8936,705.2813 Q79.4873,705 80.1123,704.4219 L80.1123,707.1406 Z " fill="#000000"/><text fill="#000000" font-family="sans-serif" font-size="14" lengthAdjust="spacing" textLength="129.3701" x="97.6436" y="706.3467">PacienteController</text><line style="stroke:#181818;stroke-width:0.5;" x1="8" x2="284.1572" y1="717.5" y2="717.5"/><line style="stroke:#181818;stroke-width:0.5;" x1="8" x2="284.1572" y1="725.5" y2="725.5"/><ellipse cx="18" cy="739.1484" fill="#84BE84" rx="3" ry="3" style="stroke:#038048;stroke-width:1.0;"/><text fill="#000000" font-family="sans-serif" font-size="14" lengthAdjust="spacing" textLength="137.7373" x="27" y="742.4951">cadastrarPaciente()</text><ellipse cx="18" cy="755.4453" fill="#84BE84" rx="3" ry="3" style="stroke:#038048;stroke-width:1.0;"/><text fill="#000000" font-family="sans-serif" font-size="14" lengthAdjust="spacing" textLength="118.125" x="27" y="758.792">excluirPaciente()</text><ellipse cx="18" cy="771.7422" fill="#84BE84" rx="3" ry="3" style="stroke:#038048;stroke-width:1.0;"/><text fill="#000000" font-family="sans-serif" font-size="14" lengthAdjust="spacing" textLength="252.1572" x="27" y="775.0889">listarPacientes(ordenadoPor: string)</text></g><!--class AgendaController--><g id="elem_AgendaController"><rect codeLine="49" fill="#F1F1F1" height="96.8906" id="AgendaController" rx="2.5" ry="2.5" style="stroke:#181818;stroke-width:0.5;" width="403.207" x="617" y="343.5"/><ellipse cx="753.0591" cy="359.5" fill="#ADD1B2" rx="11" ry="11" style="stroke:#181818;stroke-width:1.0;"/><path d="M756.0278,365.1406 Q755.4497,365.4375 754.8091,365.5781 Q754.1685,365.7344 753.4653,365.7344 Q750.9653,365.7344 749.6372,364.0938 Q748.3247,362.4375 748.3247,359.3125 Q748.3247,356.1875 749.6372,354.5313 Q750.9653,352.875 753.4653,352.875 Q754.1685,352.875 754.8091,353.0313 Q755.4653,353.1875 756.0278,353.4844 L756.0278,356.2031 Q755.4028,355.625 754.8091,355.3594 Q754.2153,355.0781 753.5903,355.0781 Q752.2466,355.0781 751.5591,356.1563 Q750.8716,357.2188 750.8716,359.3125 Q750.8716,361.4063 751.5591,362.4844 Q752.2466,363.5469 753.5903,363.5469 Q754.2153,363.5469 754.8091,363.2813 Q755.4028,363 756.0278,362.4219 L756.0278,365.1406 Z " fill="#000000"/><text fill="#000000" font-family="sans-serif" font-size="14" lengthAdjust="spacing" textLength="122.5889" x="773.5591" y="364.3467">AgendaController</text><line style="stroke:#181818;stroke-width:0.5;" x1="618" x2="1019.207" y1="375.5" y2="375.5"/><line style="stroke:#181818;stroke-width:0.5;" x1="618" x2="1019.207" y1="383.5" y2="383.5"/><ellipse cx="628" cy="397.1484" fill="#84BE84" rx="3" ry="3" style="stroke:#038048;stroke-width:1.0;"/><text fill="#000000" font-family="sans-serif" font-size="14" lengthAdjust="spacing" textLength="130.4365" x="637" y="400.4951">agendarConsulta()</text><ellipse cx="628" cy="413.4453" fill="#84BE84" rx="3" ry="3" style="stroke:#038048;stroke-width:1.0;"/><text fill="#000000" font-family="sans-serif" font-size="14" lengthAdjust="spacing" textLength="131.9473" x="637" y="416.792">cancelarConsulta()</text><ellipse cx="628" cy="429.7422" fill="#84BE84" rx="3" ry="3" style="stroke:#038048;stroke-width:1.0;"/><text fill="#000000" font-family="sans-serif" font-size="14" lengthAdjust="spacing" textLength="377.207" x="637" y="433.0889">listarAgenda(periodoInicio?: Date, periodoFim?: Date)</text></g><!--class PacienteView--><g id="elem_PacienteView"><rect codeLine="55" fill="#F1F1F1" height="129.4844" id="PacienteView" rx="2.5" ry="2.5" style="stroke:#181818;stroke-width:0.5;" width="556.1338" x="540.5" y="697.5"/><ellipse cx="767.4531" cy="713.5" fill="#ADD1B2" rx="11" ry="11" style="stroke:#181818;stroke-width:1.0;"/><path d="M770.4219,719.1406 Q769.8438,719.4375 769.2031,719.5781 Q768.5625,719.7344 767.8594,719.7344 Q765.3594,719.7344 764.0313,718.0938 Q762.7188,716.4375 762.7188,713.3125 Q762.7188,710.1875 764.0313,708.5313 Q765.3594,706.875 767.8594,706.875 Q768.5625,706.875 769.2031,707.0313 Q769.8594,707.1875 770.4219,707.4844 L770.4219,710.2031 Q769.7969,709.625 769.2031,709.3594 Q768.6094,709.0781 767.9844,709.0781 Q766.6406,709.0781 765.9531,710.1563 Q765.2656,711.2188 765.2656,713.3125 Q765.2656,715.4063 765.9531,716.4844 Q766.6406,717.5469 767.9844,717.5469 Q768.6094,717.5469 769.2031,717.2813 Q769.7969,717 770.4219,716.4219 L770.4219,719.1406 Z " fill="#000000"/><text fill="#000000" font-family="sans-serif" font-size="14" lengthAdjust="spacing" textLength="93.7275" x="787.9531" y="718.3467">PacienteView</text><line style="stroke:#181818;stroke-width:0.5;" x1="541.5" x2="1095.6338" y1="729.5" y2="729.5"/><line style="stroke:#181818;stroke-width:0.5;" x1="541.5" x2="1095.6338" y1="737.5" y2="737.5"/><ellipse cx="551.5" cy="751.1484" fill="#84BE84" rx="3" ry="3" style="stroke:#038048;stroke-width:1.0;"/><text fill="#000000" font-family="sans-serif" font-size="14" lengthAdjust="spacing" textLength="530.1338" x="560.5" y="754.4951">obterDadosPaciente(): { cpf: string, nome: string, dataNascimento: string }</text><ellipse cx="551.5" cy="767.4453" fill="#84BE84" rx="3" ry="3" style="stroke:#038048;stroke-width:1.0;"/><text fill="#000000" font-family="sans-serif" font-size="14" lengthAdjust="spacing" textLength="181.3779" x="560.5" y="770.792">obterCpfPaciente(): string</text><ellipse cx="551.5" cy="783.7422" fill="#84BE84" rx="3" ry="3" style="stroke:#038048;stroke-width:1.0;"/><text fill="#000000" font-family="sans-serif" font-size="14" lengthAdjust="spacing" textLength="300.3301" x="560.5" y="787.0889">listarPacientes(pacientes: Paciente[]): void</text><ellipse cx="551.5" cy="800.0391" fill="#84BE84" rx="3" ry="3" style="stroke:#038048;stroke-width:1.0;"/><text fill="#000000" font-family="sans-serif" font-size="14" lengthAdjust="spacing" textLength="211.7637" x="560.5" y="803.3857">mostrarErro(erro: string): void</text><ellipse cx="551.5" cy="816.3359" fill="#84BE84" rx="3" ry="3" style="stroke:#038048;stroke-width:1.0;"/><text fill="#000000" font-family="sans-serif" font-size="14" lengthAdjust="spacing" textLength="308.8613" x="560.5" y="819.6826">mostrarMensagem(mensagem: string): void</text></g><!--class AgendaView--><g id="elem_AgendaView"><rect codeLine="63" fill="#F1F1F1" height="129.4844" id="AgendaView" rx="2.5" ry="2.5" style="stroke:#181818;stroke-width:0.5;" width="680.2402" x="1523" y="385.5"/><ellipse cx="1815.397" cy="401.5" fill="#ADD1B2" rx="11" ry="11" style="stroke:#181818;stroke-width:1.0;"/><path d="M1818.3657,407.1406 Q1817.7876,407.4375 1817.147,407.5781 Q1816.5063,407.7344 1815.8032,407.7344 Q1813.3032,407.7344 1811.9751,406.0938 Q1810.6626,404.4375 1810.6626,401.3125 Q1810.6626,398.1875 1811.9751,396.5313 Q1813.3032,394.875 1815.8032,394.875 Q1816.5063,394.875 1817.147,395.0313 Q1817.8032,395.1875 1818.3657,395.4844 L1818.3657,398.2031 Q1817.7407,397.625 1817.147,397.3594 Q1816.5532,397.0781 1815.9282,397.0781 Q1814.5845,397.0781 1813.897,398.1563 Q1813.2095,399.2188 1813.2095,401.3125 Q1813.2095,403.4063 1813.897,404.4844 Q1814.5845,405.5469 1815.9282,405.5469 Q1816.5532,405.5469 1817.147,405.2813 Q1817.7407,405 1818.3657,404.4219 L1818.3657,407.1406 Z " fill="#000000"/><text fill="#000000" font-family="sans-serif" font-size="14" lengthAdjust="spacing" textLength="86.9463" x="1835.897" y="406.3467">AgendaView</text><line style="stroke:#181818;stroke-width:0.5;" x1="1524" x2="2202.2402" y1="417.5" y2="417.5"/><line style="stroke:#181818;stroke-width:0.5;" x1="1524" x2="2202.2402" y1="425.5" y2="425.5"/><ellipse cx="1534" cy="439.1484" fill="#84BE84" rx="3" ry="3" style="stroke:#038048;stroke-width:1.0;"/><text fill="#000000" font-family="sans-serif" font-size="14" lengthAdjust="spacing" textLength="654.2402" x="1543" y="442.4951">obterDadosConsulta(): { cpf: string, dataConsulta: string, horaInicio: string, horaFim: string }</text><ellipse cx="1534" cy="455.4453" fill="#84BE84" rx="3" ry="3" style="stroke:#038048;stroke-width:1.0;"/><text fill="#000000" font-family="sans-serif" font-size="14" lengthAdjust="spacing" textLength="578.4775" x="1543" y="458.792">obterDadosCancelamento(): { cpf: string, dataConsulta: string, horaInicio: string }</text><ellipse cx="1534" cy="471.7422" fill="#84BE84" rx="3" ry="3" style="stroke:#038048;stroke-width:1.0;"/><text fill="#000000" font-family="sans-serif" font-size="14" lengthAdjust="spacing" textLength="286.0156" x="1543" y="475.0889">listarAgenda(consultas: Consulta[]): void</text><ellipse cx="1534" cy="488.0391" fill="#84BE84" rx="3" ry="3" style="stroke:#038048;stroke-width:1.0;"/><text fill="#000000" font-family="sans-serif" font-size="14" lengthAdjust="spacing" textLength="211.7637" x="1543" y="491.3857">mostrarErro(erro: string): void</text><ellipse cx="1534" cy="504.3359" fill="#84BE84" rx="3" ry="3" style="stroke:#038048;stroke-width:1.0;"/><text fill="#000000" font-family="sans-serif" font-size="14" lengthAdjust="spacing" textLength="308.8613" x="1543" y="507.6826">mostrarMensagem(mensagem: string): void</text></g><!--link Paciente to Consulta--><g id="link_Paciente_Consulta"><path codeLine="71" d="M1954.61,605.04 C2061.38,609.27 2241.06,603.37 2374,532 C2459.04,486.35 2526.15,393.84 2563.19,333.7 " fill="none" id="Paciente-Consulta" style="stroke:#181818;stroke-width:1.0;"/><text fill="#000000" font-family="sans-serif" font-size="13" lengthAdjust="spacing" textLength="73.0933" x="2408" y="442.0669">association</text><text fill="#000000" font-family="sans-serif" font-size="13" lengthAdjust="spacing" textLength="8.271" x="1962.8263" y="618.3668">1</text><text fill="#000000" font-family="sans-serif" font-size="13" lengthAdjust="spacing" textLength="23.0356" x="2534.8222" y="353.5879">1..*</text></g><!--reverse link Agenda to Consulta--><g id="link_Agenda_Consulta"><path codeLine="72" d="M2144.5814,131.428 C2223.1214,146.268 2296.79,162.94 2374,186 C2421.81,200.28 2473.47,221.22 2514.81,239.42 " fill="none" id="Agenda-backto-Consulta" style="stroke:#181818;stroke-width:1.0;"/><polygon fill="none" points="2132.79,129.2,2137.943,134.2444,2144.5814,131.428,2139.4283,126.3835,2132.79,129.2" style="stroke:#181818;stroke-width:1.0;"/><text fill="#000000" font-family="sans-serif" font-size="13" lengthAdjust="spacing" textLength="79.2568" x="2405" y="192.0669">composition</text><text fill="#000000" font-family="sans-serif" font-size="13" lengthAdjust="spacing" textLength="8.271" x="2140.9209" y="142.7135">1</text><text fill="#000000" font-family="sans-serif" font-size="13" lengthAdjust="spacing" textLength="23.0356" x="2483.8674" y="248.8995">1..*</text></g><!--link PacienteFactory to Paciente--><g id="link_PacienteFactory_Paciente"><path codeLine="74" d="M1238.27,598 C1435.14,598 1646.32,598 1765.4,598 " fill="none" id="PacienteFactory-to-Paciente" style="stroke:#181818;stroke-width:1.0;"/><polygon fill="#181818" points="1771.4,598,1762.4,594,1766.4,598,1762.4,602,1771.4,598" style="stroke:#181818;stroke-width:1.0;"/><text fill="#000000" font-family="sans-serif" font-size="13" lengthAdjust="spacing" textLength="48.3247" x="1271" y="594.0669">creates</text></g><!--link ConsultaFactory to Consulta--><g id="link_ConsultaFactory_Consulta"><path codeLine="75" d="M2374.19,277 C2428,277 2470.83,277 2508.8,277 " fill="none" id="ConsultaFactory-to-Consulta" style="stroke:#181818;stroke-width:1.0;"/><polygon fill="#181818" points="2514.8,277,2505.8,273,2509.8,277,2505.8,281,2514.8,277" style="stroke:#181818;stroke-width:1.0;"/><text fill="#000000" font-family="sans-serif" font-size="13" lengthAdjust="spacing" textLength="48.3247" x="2420.5" y="273.0669">creates</text></g><!--link PacienteController to PacienteFactory--><g id="link_PacienteController_PacienteFactory"><path codeLine="77" d="M285.22,703.92 C322.16,696.01 362.07,687.57 399,680 C427.01,674.25 450.2165,669.5567 479.4165,663.7167 " fill="none" id="PacienteController-to-PacienteFactory" style="stroke:#181818;stroke-width:1.0;"/><polygon fill="#181818" points="485.3,662.54,475.6903,660.3827,480.3971,663.5206,477.2592,668.2274,485.3,662.54" style="stroke:#181818;stroke-width:1.0;"/><text fill="#000000" font-family="sans-serif" font-size="13" lengthAdjust="spacing" textLength="29.7832" x="327.5" y="684.0669">uses</text></g><!--link AgendaController to ConsultaFactory--><g id="link_AgendaController_ConsultaFactory"><path codeLine="78" d="M1020.2,369.86 C1115.44,359.35 1228.0561,346.9275 1345.8861,333.9375 " fill="none" id="AgendaController-to-ConsultaFactory" style="stroke:#181818;stroke-width:1.0;"/><polygon fill="#181818" points="1351.85,333.28,1342.4659,330.2903,1346.8801,333.8279,1343.3425,338.2421,1351.85,333.28" style="stroke:#181818;stroke-width:1.0;"/><text fill="#000000" font-family="sans-serif" font-size="13" lengthAdjust="spacing" textLength="29.7832" x="1280.5" y="334.0669">uses</text></g><!--link PacienteController to PacienteView--><g id="link_PacienteController_PacienteView"><path codeLine="80" d="M285.12,739.77 C358.82,742.85 446.2352,746.4998 534.1652,750.1698 " fill="none" id="PacienteController-to-PacienteView" style="stroke:#181818;stroke-width:1.0;"/><polygon fill="#181818" points="540.16,750.42,531.3346,746.0482,535.1643,750.2115,531.001,754.0412,540.16,750.42" style="stroke:#181818;stroke-width:1.0;"/><text fill="#000000" font-family="sans-serif" font-size="13" lengthAdjust="spacing" textLength="52.9331" x="316" y="737.0669">displays</text></g><!--link AgendaController to AgendaView--><g id="link_AgendaController_AgendaView"><path codeLine="81" d="M1020.2,403.17 C1162.47,411.08 1350.8293,421.5564 1516.9393,430.8064 " fill="none" id="AgendaController-to-AgendaView" style="stroke:#181818;stroke-width:1.0;"/><polygon fill="#181818" points="1522.93,431.14,1514.1663,426.6458,1517.9377,430.862,1513.7215,434.6334,1522.93,431.14" style="stroke:#181818;stroke-width:1.0;"/><text fill="#000000" font-family="sans-serif" font-size="13" lengthAdjust="spacing" textLength="52.9331" x="1269" y="414.0669">displays</text></g><!--SRC=[jLQnRjim4Dtz5KGckRK3PEYYeKOGnwY710OAT2awq1Jj491u1acv2GB_UqyIAP8IrQHewqKoUVVkxl7TYIK_66A0A75yCgGGYZCZGCvchAHQanrbWal3oUkCu6z9sEcG4ssKa4Ux8g7YWwM26lf8DHCL-a9ErjJmsSLXte7KTMbeZtcoGV8-N83Zh2rAj_44YcwbO086aPkDZQZwrJxexP7BmeTa5bNdVJhVVxHx7maj6c19bTl9M9-3Mvhdv0oYi1wCIiRBqC6pj4XKiKWK42EMGXkFfxCJLm8AS2uTY5t4UbVTqlntrJXkip7TSMp5ApXpRnyK4niUkN56EfjxE8nz6GfeGva1zM8F02bJWYP3B291BP9QmbYlPrgA0l_l0KfEvO9mfM3b_LoLAv_NnSPkNP7TtMPGcyMApRO5BVY3aAAYsKGoIRz7B2CBQnaRulaT1AFg_XcFcqicw4H2ezv9qjdBRtp2xrNXOjX1xw7QjSVAosz0zHS4HQrc_oIWm-PFczhK2h9nQTDKVuMzuYVG-9voV2ydCJeIW05CqpEAebHg0xgjLKNzBUjgprMV_HRFHM6fiEOtdvnNrJsTSKe3xamnSwEWBBdoCg05nN11PyrTk6TMrcAytWqQtyQW2Yvf0JjGVUR3APe8JDiDhy3vr6ICutPuyNHRJO-tCGVV1F_P9m5x97IDoMjV9gg9_C5qwTR99KIyEnr2lE1xCwRFTPuEfs4yDIjeJ-WU9PqrkaxFLclrmAL6RgkiiYz3wy7HJF3XwH_n4VT0gFWtkY0cgGlJdNRBvL-4wf4ZaIG_sV-PslxwStLpHPPBV5nVVxZoDvYS8FM0SxkzCzaxHcCBIMC6LJDwkWlMyCkuN7xsrosqLHmbhsV3YT-OXP3MR9QO2Y6YSyz9hT5yrCWXxC3sBUXMSpdU7VMff2yJs84ylUal]--></g></svg>